Coordinates
version=1
nRows=22
nColumns=24
inDegrees=yes

Units are S.I. units (second, meters, Newtons, ...)
Angles are in degrees.

endheader
time	pelvis_tilt	pelvis_list	pelvis_rotation	pelvis_tx	pelvis_ty	pelvis_tz	hip_flexion_r	hip_adduction_r	hip_rotation_r	knee_angle_r	ankle_angle_r	subtalar_angle_r	mtp_angle_r	hip_flexion_l	hip_adduction_l	hip_rotation_l	knee_angle_l	ankle_angle_l	subtalar_angle_l	mtp_angle_l	lumbar_extension	lumbar_bending	lumbar_rotation
      1.10816667	      7.54742482	      2.20239991	      0.42828964	     -0.10317350	      0.99009579	      0.31437508	    -29.04419302	      0.72177396	     -3.79342138	     -1.60693147	     17.53197591	     -1.47831994	     -2.97469053	     13.33582288	      3.27289799	      3.80097523	      4.45057420	     -3.56929734	    -10.46904184	     -1.63207334	    -22.03433483	      2.22363702	      7.72748560
      1.11233333	      7.58882437	      2.38839075	      0.40945143	     -0.09732631	      0.98943328	      0.31389190	    -29.20227200	      0.47832310	     -4.00203006	     -2.12966459	     17.67410671	     -1.20105498	     -2.88496372	     13.34687831	      3.55538132	      3.96608467	      4.07225370	     -3.80843662	    -10.72080830	     -1.54352352	    -22.07590135	      1.98618705	      7.70230852
      1.11650000	      7.62682220	      2.58492703	      0.39295755	     -0.09145231	      0.98881771	      0.31340044	    -29.34215882	      0.22383042	     -4.19792989	     -2.68352643	     17.78381657	     -0.95360895	     -2.77882291	     13.37475020	      3.85179595	      4.12550486	      3.60771954	     -4.09939899	    -11.00483351	     -1.45120992	    -22.10679424	      1.73460804	      7.67234542
      1.12066667	      7.65984589	      2.79422630	      0.37883178	     -0.08554268	      0.98824373	      0.31289081	    -29.46458145	     -0.04438416	     -4.39197201	     -3.26541055	     17.86906334	     -0.71513206	     -2.65440175	     13.42085661	      4.16504914	      4.28306360	      3.06306306	     -4.44502039	    -11.32435959	     -1.35522196	    -22.13015610	      1.46990378	      7.62751948
      1.12483333	      7.68787831	      3.00854058	      0.36684211	     -0.07961108	      0.98771734	      0.31236383	    -29.56191852	     -0.31938775	     -4.58293755	     -3.88712308	     17.91627460	     -0.50547448	     -2.49534986	     13.48280063	      4.48622892	      4.44700943	      2.44829600	     -4.82232060	    -11.67622213	     -1.24538908	    -22.15050472	      1.20440861	      7.57623508
      1.12900000	      7.70606206	      3.23113101	      0.36084604	     -0.07364260	      0.98722693	      0.31182228	    -29.64842663	     -0.59953499	     -4.74220355	     -4.50984345	     17.92341820	     -0.34182869	     -2.32516827	     13.57252886	      4.81914855	      4.58154804	      1.75758137	     -5.25732897	    -12.04049150	     -1.14233623	    -22.15419838	      0.92947620	      7.51266281
      1.13316667	      7.72049571	      3.45551275	      0.35747507	     -0.06765021	      0.98677940	      0.31127328	    -29.71050533	     -0.88170095	     -4.90588068	     -5.17473787	     17.89344868	     -0.19550831	     -2.11947151	     13.67465672	      5.15528465	      4.72393645	      1.01393367	     -5.71490094	    -12.44204809	     -1.03234208	    -22.14801543	      0.65082720	      7.44096992
      1.13733333	      7.72188225	      3.68519476	      0.35756255	     -0.06163007	      0.98636812	      0.31069958	    -29.74594543	     -1.16905710	     -5.04768974	     -5.86422141	     17.81779795	     -0.09063131	     -1.88398907	     13.80280652	      5.49985743	      4.85108448	      0.21379570	     -6.19560206	    -12.85649153	     -0.92299931	    -22.13130220	      0.37334041	      7.36244828
      1.14150000	      7.73919649	      3.91540869	      0.36469014	     -0.05559463	      0.98601692	      0.31010757	    -29.77620832	     -1.45536445	     -5.20522229	     -6.60021843	     17.69709891	     -0.00315327	     -1.48985338	     13.91568054	      5.84824070	      5.01380720	     -0.62057275	     -6.64395013	    -13.33688894	     -0.76378748	    -22.13275435	      0.09030268	      7.27027235
      1.14566667	      7.71726051	      4.13591690	      0.37452603	     -0.04952713	      0.98568343	      0.30950774	    -29.76172288	     -1.72951121	     -5.29746991	     -7.33361758	     17.52008105	      0.01688767	     -1.10968166	     14.09399441	      6.18638062	      5.09405493	     -1.51845807	     -7.16476306	    -13.75741867	     -0.64134492	    -22.08077688	     -0.17737099	      7.17598972
      1.14983333	      7.70567552	      4.36725451	      0.38596811	     -0.04342995	      0.98540708	      0.30888853	    -29.73953127	     -2.01560512	     -5.40106801	     -8.10422621	     17.30019267	      0.03195232	     -0.56672006	     14.25303599	      6.53862068	      5.22553392	     -2.42754123	     -7.63427203	    -14.24505192	     -0.49996373	    -22.04057487	     -0.44858504	      7.06596305
      1.15400000	      7.75167521	      4.60233687	      0.38528309	     -0.03732337	      0.98525961	      0.30831518	    -29.77754073	     -2.29954414	     -5.44325945	     -8.85875647	     16.91983634	     -0.19794081	      4.67746707	     14.35863353	      6.88636987	      5.26326724	     -3.36645023	     -8.06810663	    -14.62151587	      0.54281434	    -22.06882733	     -0.74923807	      6.99676197
      1.15816667	      7.73247624	      4.82961545	      0.40694707	     -0.03115547	      0.98509223	      0.30768667	    -29.73470120	     -2.57091433	     -5.49517143	     -9.63910152	     16.50727445	     -0.29883783	      4.70760668	     14.55271612	      7.23131083	      5.28821147	     -4.37274936	     -8.37333145	    -14.90254473	      0.52598899	    -22.01380961	     -1.03546573	      6.89828077
      1.16233333	      7.68951020	      5.01626138	      0.43153995	     -0.02502907	      0.98493992	      0.30701887	    -29.60521866	     -2.80946925	     -5.54291929	    -10.53706513	     16.13576491	     -0.38491025	      4.82485664	     14.76454244	      7.54053334	      5.38988447	     -5.36774813	     -8.73380664	    -15.35450311	      0.49018152	    -21.92823758	     -1.24154048	      6.77142121
      1.16650000	      7.67333852	      5.22230419	      0.44769045	     -0.01885871	      0.98487995	      0.30636474	    -29.49891389	     -3.06653580	     -5.56960666	    -11.43757611	     15.67539436	     -0.53511295	      4.99686906	     14.93548933	      7.86670516	      5.47518464	     -6.35829253	     -9.01961159	    -15.76014810	      0.44385794	    -21.87295873	     -1.49028289	      6.65468688
      1.17066667	      7.65377861	      5.41432194	      0.46685724	     -0.01267807	      0.98487107	      0.30569601	    -29.36430066	     -3.30907895	     -5.57793971	    -12.37547120	     15.15409978	     -0.71702203	      5.25876195	     15.10802751	      8.18014241	      5.56424753	     -7.35938429	     -9.23899804	    -16.15786750	      0.37741886	    -21.81381860	     -1.71702956	      6.53600746
      1.17483333	      7.72687987	      5.63908486	      0.50058477	     -0.00648218	      0.98502841	      0.30498272	    -29.33368695	     -3.57255528	     -5.63859242	    -13.29149815	     14.49672366	     -0.97491215	      9.56580067	     15.13319191	      8.54510872	      5.79594937	     -8.28266628	     -9.47266721	    -16.76512785	     -0.64901811	    -21.87293769	     -1.96031220	      6.30361211
      1.17900000	      7.67392845	      5.80433295	      0.48320096	     -0.00026382	      0.98509923	      0.30435175	    -29.08772295	     -3.81162838	     -5.58774378	    -14.34462405	     13.84652460	     -1.18467479	      9.66913985	     15.35171419	      8.81353387	      5.73357240	     -9.33169210	     -9.44006041	    -16.88384760	     -0.66760721	    -21.76010785	     -2.18512039	      6.31464548
      1.18316667	      7.66806576	      5.96865285	      0.49063147	      0.00594960	      0.98527137	      0.30366973	    -28.88339392	     -4.03433040	     -5.55478531	    -15.40493807	     13.12911369	     -1.44293431	      9.85558165	     15.49041276	      9.09697311	      5.78682377	    -10.33778085	     -9.39065733	    -17.13891976	     -0.70971242	    -21.71063197	     -2.37514483	      6.20809483
      1.18733333	      7.66543221	      6.12374988	      0.49090194	      0.01216383	      0.98550442	      0.30297983	    -28.64457749	     -4.25420943	     -5.51445197	    -16.52046015	     12.34038732	     -1.72597752	     10.18670352	     15.60523768	      9.37209516	      5.85998583	    -11.31231948	     -9.29676481	    -17.41038625	     -0.79192075	    -21.66166734	     -2.55138698	      6.09392221
      1.19150000	      7.67509183	      6.27309385	      0.48475722	      0.01838830	      0.98580286	      0.30229683	    -28.38334254	     -4.47421267	     -5.48405516	    -17.68642510	     11.47359756	     -2.02339325	     10.68355033	     15.68639199	      9.63927602	      5.93084680	    -12.25711521	     -9.11495902	    -17.63229104	     -0.92106076	    -21.61854251	     -2.72888493	      5.98930456
      1.19566667	      7.76636448	      6.44574198	      0.44820796	      0.02460106	      0.98624153	      0.30162076	    -28.18177754	     -4.73911610	     -5.48540072	    -18.87383443	     10.50212101	     -2.28798047	     17.08904042	     15.66419120	      9.92952437	      5.97348685	    -13.18243149	     -8.81551213	    -17.84690677	     -2.63207145	    -21.69790385	     -2.94007309	      5.92495667
